<svg width="512" height="512" viewBox="0 0 512 512" xmlns="http://www.w3.org/2000/svg">
  <!-- Background gradient -->
  <defs>
    <linearGradient id="bgGradient" x1="0%" y1="0%" x2="100%" y2="100%">
      <stop offset="0%" style="stop-color:#667eea;stop-opacity:1" />
      <stop offset="100%" style="stop-color:#764ba2;stop-opacity:1" />
    </linearGradient>
    <linearGradient id="folderGradient" x1="0%" y1="0%" x2="100%" y2="100%">
      <stop offset="0%" style="stop-color:#FDB813;stop-opacity:1" />
      <stop offset="100%" style="stop-color:#F59E0B;stop-opacity:1" />
    </linearGradient>
    <linearGradient id="aiGradient" x1="0%" y1="0%" x2="100%" y2="100%">
      <stop offset="0%" style="stop-color:#60A5FA;stop-opacity:1" />
      <stop offset="100%" style="stop-color:#3B82F6;stop-opacity:1" />
    </linearGradient>
  </defs>

  <!-- Background circle with gradient -->
  <circle cx="256" cy="256" r="240" fill="url(#bgGradient)"/>

  <!-- Folder icon -->
  <g transform="translate(256, 256)">
    <!-- Folder back -->
    <path d="M -90 -40 L -90 60 Q -90 70 -80 70 L 80 70 Q 90 70 90 60 L 90 -30 Q 90 -40 80 -40 L -70 -40 L -85 -55 Q -90 -60 -90 -50 Z"
          fill="url(#folderGradient)"
          stroke="#D97706"
          stroke-width="3"/>

    <!-- Folder tab -->
    <path d="M -90 -50 L -75 -65 Q -70 -70 -60 -70 L -20 -70 Q -10 -70 -5 -65 L 10 -50 Z"
          fill="#FBBF24"/>

    <!-- AI Brain/Circuit symbol in center -->
    <g transform="translate(0, 5)">
      <!-- Central circle (AI core) -->
      <circle cx="0" cy="0" r="18" fill="url(#aiGradient)" stroke="white" stroke-width="3"/>

      <!-- Neural network connections -->
      <!-- Top connections -->
      <line x1="-12" y1="-13" x2="-25" y2="-30" stroke="white" stroke-width="3" stroke-linecap="round"/>
      <line x1="0" y1="-18" x2="0" y2="-35" stroke="white" stroke-width="3" stroke-linecap="round"/>
      <line x1="12" y1="-13" x2="25" y2="-30" stroke="white" stroke-width="3" stroke-linecap="round"/>

      <!-- Bottom connections -->
      <line x1="-12" y1="13" x2="-25" y2="30" stroke="white" stroke-width="3" stroke-linecap="round"/>
      <line x1="0" y1="18" x2="0" y2="35" stroke="white" stroke-width="3" stroke-linecap="round"/>
      <line x1="12" y1="13" x2="25" y2="30" stroke="white" stroke-width="3" stroke-linecap="round"/>

      <!-- Side connections -->
      <line x1="-18" y1="0" x2="-35" y2="0" stroke="white" stroke-width="3" stroke-linecap="round"/>
      <line x1="18" y1="0" x2="35" y2="0" stroke="white" stroke-width="3" stroke-linecap="round"/>

      <!-- Neural nodes -->
      <circle cx="-25" cy="-30" r="5" fill="white"/>
      <circle cx="0" cy="-35" r="5" fill="white"/>
      <circle cx="25" cy="-30" r="5" fill="white"/>
      <circle cx="-25" cy="30" r="5" fill="white"/>
      <circle cx="0" cy="35" r="5" fill="white"/>
      <circle cx="25" cy="30" r="5" fill="white"/>
      <circle cx="-35" cy="0" r="5" fill="white"/>
      <circle cx="35" cy="0" r="5" fill="white"/>
    </g>

    <!-- Sparkle effects -->
    <g opacity="0.8">
      <path d="M 70 -60 L 75 -65 L 80 -60 L 75 -55 Z" fill="white"/>
      <path d="M -75 -65 L -78 -70 L -81 -65 L -78 -60 Z" fill="white"/>
      <path d="M 75 50 L 78 45 L 81 50 L 78 55 Z" fill="white"/>
    </g>
  </g>
</svg>
